<svg width="254" height="60" viewBox="0 0 254 60" fill="none" xmlns="http://www.w3.org/2000/svg">
<path d="M87.928 21.2V38H82.264V31.808H77.032V38H71.368V21.2H77.032V27.152H82.264V21.2H87.928ZM102.105 35.072H95.7211L94.5931 38H88.8331L96.1771 21.2H101.745L109.089 38H103.233L102.105 35.072ZM100.545 30.992L98.9131 26.768L97.2811 30.992H100.545ZM118.081 21.2C119.633 21.2 120.985 21.456 122.137 21.968C123.289 22.48 124.177 23.216 124.801 24.176C125.425 25.136 125.737 26.256 125.737 27.536C125.737 28.816 125.425 29.936 124.801 30.896C124.177 31.856 123.289 32.592 122.137 33.104C120.985 33.616 119.633 33.872 118.081 33.872H115.657V38H109.993V21.2H118.081ZM117.721 29.504C118.489 29.504 119.065 29.336 119.449 29C119.833 28.648 120.025 28.16 120.025 27.536C120.025 26.912 119.833 26.432 119.449 26.096C119.065 25.744 118.489 25.568 117.721 25.568H115.657V29.504H117.721ZM135.683 21.2C137.235 21.2 138.587 21.456 139.739 21.968C140.891 22.48 141.779 23.216 142.403 24.176C143.027 25.136 143.339 26.256 143.339 27.536C143.339 28.816 143.027 29.936 142.403 30.896C141.779 31.856 140.891 32.592 139.739 33.104C138.587 33.616 137.235 33.872 135.683 33.872H133.259V38H127.595V21.2H135.683ZM135.323 29.504C136.091 29.504 136.667 29.336 137.051 29C137.435 28.648 137.627 28.16 137.627 27.536C137.627 26.912 137.435 26.432 137.051 26.096C136.667 25.744 136.091 25.568 135.323 25.568H133.259V29.504H135.323ZM155.18 31.904V38H149.516V31.832L143.18 21.2H149.156L152.588 27.008L156.044 21.2H161.516L155.18 31.904ZM177.519 21.2C179.071 21.2 180.423 21.456 181.575 21.968C182.727 22.48 183.615 23.216 184.239 24.176C184.863 25.136 185.175 26.256 185.175 27.536C185.175 28.816 184.863 29.936 184.239 30.896C183.615 31.856 182.727 32.592 181.575 33.104C180.423 33.616 179.071 33.872 177.519 33.872H175.095V38H169.431V21.2H177.519ZM177.159 29.504C177.927 29.504 178.503 29.336 178.887 29C179.271 28.648 179.463 28.16 179.463 27.536C179.463 26.912 179.271 26.432 178.887 26.096C178.503 25.744 177.927 25.568 177.159 25.568H175.095V29.504H177.159ZM197.636 35.072H191.252L190.124 38H184.364L191.708 21.2H197.276L204.62 38H198.764L197.636 35.072ZM196.076 30.992L194.444 26.768L192.812 30.992H196.076ZM231.899 21.2L226.523 38H220.451L217.739 29.024L214.883 38H208.811L203.435 21.2H209.267L212.195 30.752L215.291 21.2H220.499L223.427 30.872L226.523 21.2H231.899Z" fill="#1C1C1C"/>
<path d="M55 0.673767H5C2.23858 0.673767 0 2.91234 0 5.67377V54.7418C0 57.5032 2.23858 59.7418 5 59.7418H55C57.7614 59.7418 60 57.5032 60 54.7418V5.67377C60 2.91234 57.7614 0.673767 55 0.673767Z" fill="#1C1C1C"/>
<path d="M30.0001 28.1158C35.2708 28.1158 42.6903 36.1373 42.6903 41.2038C42.7488 43.4854 40.9731 44.8517 37.9821 44.8517C34.7415 44.8517 32.5966 43.2108 30.0001 43.2108C27.377 43.2108 25.2255 44.8517 22.0181 44.8517C19.0895 44.8517 17.2541 43.4867 17.2541 41.2071C17.3099 36.1438 24.7274 28.1158 30.0001 28.1158ZM39.7751 27.2921C40.4637 25.0288 42.5974 23.5579 44.5311 24.0155C46.4649 24.4731 47.4718 26.6775 46.7829 28.9395C46.0943 31.208 43.9607 32.6789 42.0269 32.2213C40.0932 31.7637 39.0911 29.554 39.7751 27.2921ZM34.1505 25.9323C32.1005 25.4011 31.0712 22.7224 31.8595 19.8282C32.6477 16.9341 34.9474 15.1801 37.0053 15.6527C39.0552 16.1839 40.0845 18.8626 39.2963 21.7568C38.5067 24.5921 36.2091 26.4683 34.1505 25.9323ZM15.4638 24.0168C17.3975 23.618 19.5311 25.0301 20.2198 27.2934C20.9084 29.5573 19.9043 31.763 17.9706 32.2207C16.0368 32.6194 13.9118 31.2073 13.2146 28.9441C12.5286 26.6775 13.5911 24.4744 15.4638 24.0168ZM25.8497 25.9323C23.8509 26.4634 21.4921 24.5921 20.7039 21.7568C19.9156 18.9215 20.9446 16.1836 22.9949 15.6527C24.9937 15.1216 27.3525 16.9929 28.1407 19.8282C28.9309 22.6635 27.9016 25.4027 25.8497 25.9323Z" fill="white"/>
</svg>
