<svg width="53" height="53" viewBox="0 0 53 53" fill="none" xmlns="http://www.w3.org/2000/svg">
<path d="M26.5 22.8273C34.7161 22.8273 46.2819 35.3314 46.2819 43.2292C46.373 46.7858 43.6049 48.9157 38.9426 48.9157C33.891 48.9157 30.5475 46.3578 26.5 46.3578C22.4112 46.3578 19.0573 48.9157 14.0574 48.9157C9.4924 48.9157 6.63123 46.7878 6.63123 43.2343C6.71819 35.3416 18.2809 22.8273 26.5 22.8273ZM41.7375 21.5433C42.811 18.0152 46.1369 15.7223 49.1513 16.4357C52.1657 17.149 53.7354 20.5853 52.6615 24.1113C51.5881 27.6475 48.2621 29.9405 45.2477 29.2271C42.2334 28.5138 40.6713 25.0693 41.7375 21.5433ZM32.9698 19.4236C29.7742 18.5956 28.1697 14.4199 29.3985 9.90848C30.6272 5.39703 34.2119 2.66285 37.4199 3.39964C40.6154 4.22764 42.2199 8.40331 40.9912 12.9148C39.7604 17.3345 36.1787 20.2592 32.9698 19.4236ZM3.84045 16.4377C6.85483 15.8161 10.1808 18.0173 11.2542 21.5453C12.3277 25.0744 10.7625 28.5127 7.74817 29.2261C4.73379 29.8477 1.4213 27.6465 0.334381 24.1185C-0.734936 20.5853 0.921314 17.1511 3.84045 16.4377ZM20.0303 19.4236C16.9145 20.2516 13.2376 17.3345 12.0089 12.9148C10.7801 8.49502 12.3841 4.22713 15.5802 3.39964C18.696 2.57164 22.3729 5.48875 23.6016 9.90848C24.8334 14.3282 23.2289 18.5981 20.0303 19.4236Z" fill="#1C1C1C"/>
</svg>
