<svg width="251" height="60" viewBox="0 0 251 60" fill="none" xmlns="http://www.w3.org/2000/svg">
<path d="M86.9279 21.2V38H81.2639V31.808H76.0319V38H70.3679V21.2H76.0319V27.152H81.2639V21.2H86.9279ZM101.105 35.0719H94.721L93.593 38H87.833L95.177 21.2H100.745L108.089 38H102.233L101.105 35.0719ZM99.545 30.992L97.913 26.768L96.281 30.992H99.545ZM117.081 21.2C118.633 21.2 119.985 21.456 121.137 21.968C122.289 22.48 123.177 23.216 123.801 24.176C124.425 25.136 124.737 26.2559 124.737 27.5359C124.737 28.8159 124.425 29.936 123.801 30.896C123.177 31.856 122.289 32.592 121.137 33.104C119.985 33.616 118.633 33.872 117.081 33.872H114.657V38H108.993V21.2H117.081ZM116.721 29.504C117.489 29.504 118.065 29.336 118.449 29C118.833 28.648 119.025 28.1599 119.025 27.5359C119.025 26.9119 118.833 26.432 118.449 26.096C118.065 25.744 117.489 25.568 116.721 25.568H114.657V29.504H116.721ZM134.683 21.2C136.235 21.2 137.587 21.456 138.739 21.968C139.891 22.48 140.779 23.216 141.403 24.176C142.027 25.136 142.339 26.2559 142.339 27.5359C142.339 28.8159 142.027 29.936 141.403 30.896C140.779 31.856 139.891 32.592 138.739 33.104C137.587 33.616 136.235 33.872 134.683 33.872H132.259V38H126.595V21.2H134.683ZM134.323 29.504C135.091 29.504 135.667 29.336 136.051 29C136.435 28.648 136.627 28.1599 136.627 27.5359C136.627 26.9119 136.435 26.432 136.051 26.096C135.667 25.744 135.091 25.568 134.323 25.568H132.259V29.504H134.323ZM154.18 31.9039V38H148.516V31.832L142.18 21.2H148.156L151.588 27.0079L155.044 21.2H160.516L154.18 31.9039ZM176.519 21.2C178.071 21.2 179.423 21.456 180.575 21.968C181.727 22.48 182.615 23.216 183.239 24.176C183.863 25.136 184.175 26.2559 184.175 27.5359C184.175 28.8159 183.863 29.936 183.239 30.896C182.615 31.856 181.727 32.592 180.575 33.104C179.423 33.616 178.071 33.872 176.519 33.872H174.095V38H168.431V21.2H176.519ZM176.159 29.504C176.927 29.504 177.503 29.336 177.887 29C178.271 28.648 178.463 28.1599 178.463 27.5359C178.463 26.9119 178.271 26.432 177.887 26.096C177.503 25.744 176.927 25.568 176.159 25.568H174.095V29.504H176.159ZM196.636 35.0719H190.252L189.124 38H183.364L190.708 21.2H196.276L203.62 38H197.764L196.636 35.0719ZM195.076 30.992L193.444 26.768L191.812 30.992H195.076ZM230.899 21.2L225.523 38H219.451L216.739 29.024L213.883 38H207.811L202.435 21.2H208.267L211.195 30.752L214.291 21.2H219.499L222.427 30.872L225.523 21.2H230.899Z" fill="white"/>
<path d="M55 0H5C2.23858 0 0 2.23858 0 5V54.068C0 56.8294 2.23858 59.068 5 59.068H55C57.7614 59.068 60 56.8294 60 54.068V5C60 2.23858 57.7614 0 55 0Z" fill="#FFBF45"/>
<path d="M29.9951 27.6737C35.2657 27.6737 42.6853 35.643 42.6853 40.6766C42.7437 42.9433 40.968 44.3008 37.9771 44.3008C34.7365 44.3008 32.5915 42.6705 29.9951 42.6705C27.372 42.6705 25.2204 44.3008 22.013 44.3008C19.0845 44.3008 17.249 42.9446 17.249 40.6798C17.3048 35.6495 24.7224 27.6737 29.9951 27.6737ZM39.7701 26.8553C40.4587 24.6068 42.5923 23.1454 44.5261 23.6C46.4598 24.0547 47.4668 26.2448 46.7779 28.492C46.0893 30.7458 43.9556 32.2072 42.0219 31.7525C40.0881 31.2979 39.0861 29.1026 39.7701 26.8553ZM34.1454 25.5044C32.0955 24.9766 31.0662 22.3153 31.8544 19.44C32.6427 16.5647 34.9423 14.8221 37.0003 15.2917C39.0502 15.8194 40.0795 18.4807 39.2913 21.356C38.5017 24.1729 36.204 26.037 34.1454 25.5044ZM15.4587 23.6013C17.3925 23.2051 19.5261 24.6081 20.2147 26.8566C20.9034 29.1058 19.8993 31.2972 17.9656 31.7519C16.0318 32.1481 13.9068 30.7451 13.2095 28.4966C12.5236 26.2448 13.5861 24.056 15.4587 23.6013ZM25.8447 25.5044C23.8458 26.0321 21.4871 24.1729 20.6988 21.356C19.9106 18.5392 20.9396 15.8191 22.9899 15.2917C24.9887 14.764 27.3474 16.6232 28.1357 19.44C28.9259 22.2569 27.8966 24.9783 25.8447 25.5044Z" fill="black"/>
</svg>
